<?xml version="1.0" encoding="UTF-8"?>
<svg width="100pt" height="100pt" version="1.1" viewBox="0 0 100 100" xmlns="http://www.w3.org/2000/svg">
 <path d="m50 41.387c-9.3125 0.011719-16.844 7.543-16.859 16.859 0.015625 9.3086 7.5469 16.836 16.859 16.852 9.3047-0.019531 16.84-7.5469 16.859-16.855-0.019531-9.3125-7.5547-16.848-16.859-16.855zm45.043-13.977h-17.203l-1.332-15.324c0-1.4492-1.1797-2.6328-2.6367-2.6328h-47.742c-1.457 0-2.6328 1.1836-2.6328 2.6289l-1.332 15.324h-2.9648v-3.4297c0-1.1992-0.97266-2.1719-2.1758-2.1719h-9.7305c-1.1992 0-2.1758 0.97266-2.1758 2.1719v3.4297l-0.16016 0.003906c-2.7344 0-4.957 2.2148-4.957 4.9492v53.227c0 2.7422 2.2227 4.957 4.957 4.957h90.086c2.7383 0 4.957-2.2188 4.957-4.957v-53.227c0-2.7344-2.2188-4.9492-4.957-4.9492zm-82.859 20.836c-3.3984 0-6.1562-2.7578-6.1562-6.1602 0-3.4023 2.7578-6.1562 6.1562-6.1562 3.4062 0 6.1562 2.7578 6.1562 6.1562 0.003906 3.4023-2.75 6.1602-6.1562 6.1602zm24.965-32h25.695c1.5859 0 2.8633 1.2852 2.8633 2.8633 0 1.582-1.2812 2.8672-2.8633 2.8672h-25.695c-1.5742 0-2.8594-1.2852-2.8594-2.8672 0-1.5742 1.2852-2.8633 2.8594-2.8633zm12.852 66.488c-13.531 0-24.488-10.961-24.496-24.488 0.003906-13.535 10.965-24.5 24.496-24.5 13.527 0 24.488 10.961 24.492 24.496-0.003907 13.531-10.965 24.492-24.492 24.492z" fill="#f60"/>
</svg>
