<?xml version="1.0" encoding="UTF-8"?>
<svg width="100pt" height="100pt" version="1.1" viewBox="0 0 100 100" xmlns="http://www.w3.org/2000/svg">
 <g fill="#f60">
  <path d="m89.301 27.602h-27.301v6.3984c0 4.6016-3.6992 8.3984-8.3984 8.3984h-7.3008c-4.6016 0-8.3984-3.6992-8.3984-8.3984v-6.3984h-27.203c-2.1992 0-3.8984 1.8008-3.8984 3.8984v62.102c0 2.1992 1.8008 3.8984 3.8984 3.8984h78.602c2.1992 0 3.8984-1.8008 3.8984-3.8984v-62.102c0-2.1016-1.6992-3.8984-3.8984-3.8984zm-15.602 15.5c3.5 0 6.1992 2.8008 6.1992 6.1992 0 3.3984-2.8008 6.1992-6.1992 6.1992-3.3984 0-6.1992-2.8008-6.1992-6.1992 0-3.4023 2.6992-6.1992 6.1992-6.1992zm11.699 45.098c0 0.80078-0.69922 1.5-1.5 1.5h-67.797c-0.80078 0-1.5-0.69922-1.5-1.5v-4.8008c0-0.39844 0.10156-0.69922 0.39844-1l21.199-24.301c1.8008-2.1016 5.1016-2.1016 7 0l14 16.102c0.60156 0.69922 1.6016 0.69922 2.1992 0l5.8008-6.3008c1.6992-1.8008 4.5-1.8008 6.1992 0l13.602 15.102c0.19922 0.30078 0.39844 0.60156 0.39844 1z"/>
  <path d="m38.801 22.102h4.3984v11.898c0 1.6992 1.3984 3.1016 3.1016 3.1016h7.3008c1.6992 0 3.1016-1.3984 3.1016-3.1016l-0.003906-11.898h4.3984c2.3984 0 3.6992-2.6992 2.1992-4.6016l-11.199-14c-1.1016-1.3984-3.3008-1.3984-4.3984 0l-11.199 14c-1.3008 1.8984 0 4.6016 2.3008 4.6016z"/>
 </g>
</svg>
